<?xml version="1.0" encoding="UTF-8" standalone="no"?>   
<svg id="Line" xmlns="http://www.w3.org/2000/svg" viewBox="0 0 64 64">  
    <defs>  
        <!-- Changed the paths color to RGB(255, 128, 64) -->  
        <style>.cls-1{fill:rgb(255, 128, 64);}</style>  
    </defs>  
    <title>1</title>  
    <!-- Kept the background color as RGB(255,255,215) -->  
    <rect width="100%" height="100%" fill="rgb(255,255,215)"/>  
    <path class="cls-1" d="M61.20392,43.8031a1.07116,1.07116,0,0,0-.29043-.72021L54.13135,36.1958a.99992.99992,0,0,0-1.42481,1.40332L57.81842,42.79H42.896A11.69346,11.69346,0,0,1,31.21582,31.10986,17.44643,17.44643,0,0,0,13.92714,12.31745l-7.7206-.00007a1.00012,1.00012,0,0,0,.00007,2h7.72064A15.45714,15.45714,0,0,1,29.21567,31.10994,13.69565,13.69565,0,0,0,42.896,44.79H57.81842L52.70654,49.981a1.00012,1.00012,0,0,0,1.42485,1.40326l6.78212-6.887A1.07517,1.07517,0,0,0,61.20392,43.8031Z"/>  
    <path class="cls-1" d="M33.92969,24.92383a.99676.99676,0,0,0,.707-.293A11.60527,11.60527,0,0,1,42.896,21.21H57.81842l-5.11188,5.19092a1.00012,1.00012,0,0,0,1.42485,1.40327l6.78212-6.887a1.01889,1.01889,0,0,0-.00005-1.4143l-6.78211-6.88709a1.00011,1.00011,0,0,0-1.42476,1.40337L57.81842,19.21H42.896a13.5916,13.5916,0,0,0-9.67334,4.00684A1.007,1.007,0,0,0,33.92969,24.92383Z"/>  
    <path class="cls-1" d="M28.24707,42.22754a1.00115,1.00115,0,0,0-1.37939.312,15.22533,15.22533,0,0,1-12.94043,7.14307H6.20654a1.00011,1.00011,0,0,0,0,2h7.72066a17.21476,17.21476,0,0,0,14.63183-8.07569A1,1,0,0,0,28.24707,42.22754Z"/>  
</svg>