<svg width="80" height="80" viewBox="0 0 80 80" fill="none" xmlns="http://www.w3.org/2000/svg">
<path d="M40 73.3333C58.4095 73.3333 73.3333 58.4095 73.3333 40C73.3333 21.5905 58.4095 6.66666 40 6.66666C21.5905 6.66666 6.66666 21.5905 6.66666 40C6.66666 58.4095 21.5905 73.3333 40 73.3333Z" stroke="#B676AF" stroke-width="3" stroke-miterlimit="10" stroke-linecap="round" stroke-linejoin="round"/>
<path d="M40 49.6C36.9667 49.6 34.5 47.1333 34.5 44.0999V35.8667C34.5 32.8334 36.9667 30.3666 40 30.3666C43.0333 30.3666 45.5 32.8334 45.5 35.8667V44.0999C45.5 47.1333 43.0333 49.6 40 49.6Z" stroke="#B676AF" stroke-width="3" stroke-linecap="round"/>
<path d="M56.6 44.8999C55.9333 53.4999 48.7333 60.2333 40 60.2333C30.8 60.2333 23.3333 52.7667 23.3333 43.5667V36.4333C23.3333 27.2333 30.8 19.7666 40 19.7666C48.6333 19.7666 55.7333 26.3333 56.5667 34.7333" stroke="#B676AF" stroke-width="3" stroke-linecap="round"/>
</svg>
