<svg width="55" height="60" viewBox="0 0 55 60" fill="none" xmlns="http://www.w3.org/2000/svg">
<path d="M27.5001 0L55 15V45L27.5001 60L0 45V15L27.5001 0Z" fill="black" fill-opacity="0.6"/>
<path d="M50.0894 43.965L28.4077 55.7899V46.5799L41.9165 39.4151L50.0894 43.965ZM51.5724 42.6701V17.94L43.6382 22.3549V38.25L51.5724 42.6701ZM4.82287 43.965L26.5046 55.7899V46.5799L12.9955 39.4151L4.82287 43.965ZM3.33984 42.6701V17.94L11.274 22.3549V38.25L3.33984 42.6701ZM4.26791 16.3399L26.5046 4.21008V13.1149L12.2592 20.67L12.1503 20.73L4.26791 16.3399ZM50.6441 16.3399L28.4077 4.21008V13.1149L42.653 20.67L42.7619 20.73L50.6441 16.3399Z" fill="white"/>
<path d="M26.5045 44.4849L13.177 37.4199V23.42L26.5045 30.84V44.4849ZM28.4076 44.4849L41.735 37.4199V23.42L28.4076 30.84V44.4849ZM14.0793 21.8L27.4586 14.705L40.8378 21.8L27.4586 29.25L14.0793 21.8Z" fill="#93328E"/>
</svg>
