<svg width="60" height="60" viewBox="0 0 60 60" fill="none" xmlns="http://www.w3.org/2000/svg">
<path d="M46.875 20V25.25C45.775 25.1 44.525 25.025 43.125 25V20C43.125 12.125 40.9 6.875 30 6.875C19.1 6.875 16.875 12.125 16.875 20V25C15.475 25.025 14.225 25.1 13.125 25.25V20C13.125 12.75 14.875 3.125 30 3.125C45.125 3.125 46.875 12.75 46.875 20Z" fill="#93328E"/>
<path d="M46.875 25.25C45.775 25.1 44.525 25.025 43.125 25H16.875C15.475 25.025 14.225 25.1 13.125 25.25C6.75 26.025 5 29.15 5 37.5V42.5C5 52.5 7.5 55 17.5 55H42.5C52.5 55 55 52.5 55 42.5V37.5C55 29.15 53.25 26.025 46.875 25.25ZM21.775 41.775C21.3 42.225 20.65 42.5 20 42.5C19.675 42.5 19.35 42.425 19.05 42.3C18.725 42.175 18.475 42 18.225 41.775C17.775 41.3 17.5 40.65 17.5 40C17.5 39.675 17.575 39.35 17.7 39.05C17.825 38.75 18 38.475 18.225 38.225C18.475 38 18.725 37.825 19.05 37.7C19.975 37.3 21.075 37.525 21.775 38.225C22 38.475 22.175 38.75 22.3 39.05C22.425 39.35 22.5 39.675 22.5 40C22.5 40.65 22.225 41.3 21.775 41.775ZM32.3 40.95C32.175 41.25 32 41.525 31.775 41.775C31.3 42.225 30.65 42.5 30 42.5C29.325 42.5 28.7 42.225 28.225 41.775C28 41.525 27.825 41.25 27.7 40.95C27.575 40.65 27.5 40.325 27.5 40C27.5 39.325 27.775 38.7 28.225 38.225C29.15 37.3 30.825 37.3 31.775 38.225C32.225 38.7 32.5 39.325 32.5 40C32.5 40.325 32.425 40.65 32.3 40.95ZM41.775 41.775C41.3 42.225 40.65 42.5 40 42.5C39.35 42.5 38.7 42.225 38.225 41.775C37.775 41.3 37.5 40.675 37.5 40C37.5 39.325 37.775 38.7 38.225 38.225C39.175 37.3 40.85 37.3 41.775 38.225C41.875 38.35 41.975 38.475 42.075 38.625C42.175 38.75 42.25 38.9 42.3 39.05C42.375 39.2 42.425 39.35 42.45 39.5C42.475 39.675 42.5 39.85 42.5 40C42.5 40.65 42.225 41.3 41.775 41.775Z" fill="#93328E"/>
</svg>
