<svg width="60" height="60" viewBox="0 0 60 60" fill="none" xmlns="http://www.w3.org/2000/svg">
<path d="M26.9 5C25.7 5 24.75 5.95 24.75 7.15V28.3H33.925L30 24.375C29.275 23.65 29.275 22.45 30 21.725C30.725 21 31.925 21 32.65 21.725L39.75 28.85C40.475 29.575 40.475 30.775 39.75 31.5L32.65 38.625C32.275 39 31.8 39.175 31.325 39.175C30.85 39.175 30.375 39 30 38.625C29.275 37.9 29.275 36.7 30 35.975L33.9 32.075H24.75V52.9C24.75 54.075 25.7 55.05 26.9 55.05C41.625 55.05 51.9 44.775 51.9 30.05C51.9 15.325 41.6 5 26.9 5Z" fill="#93328E"/>
<path d="M9.9751 28.3C8.9501 28.3 8.1001 29.15 8.1001 30.175C8.1001 31.2 8.9501 32.05 9.9751 32.05H24.7251V28.3H9.9751Z" fill="#93328E"/>
</svg>
