<svg width="55" height="43" viewBox="0 0 55 43" fill="none" xmlns="http://www.w3.org/2000/svg">
<path d="M10 43V38H14L18.9375 21.5625C19.2708 20.4792 19.8858 19.615 20.7825 18.97C21.6792 18.325 22.6683 18.0017 23.75 18H31.25C32.3333 18 33.3233 18.3233 34.22 18.97C35.1167 19.6167 35.7308 20.4808 36.0625 21.5625L41 38H45V43H10ZM25 13V0.5H30V13H25ZM39.875 19.1875L36.3125 15.625L45.1875 6.8125L48.6875 10.3125L39.875 19.1875ZM42.5 30.5V25.5H55V30.5H42.5ZM15.125 19.1875L6.3125 10.3125L9.8125 6.8125L18.6875 15.625L15.125 19.1875ZM0 30.5V25.5H12.5V30.5H0Z" fill="#93328E"/>
</svg>
