<svg width="50" height="44" viewBox="0 0 50 44" fill="none" xmlns="http://www.w3.org/2000/svg">
<path d="M37.5 0.75H12.5C5 0.75 0 4.5 0 13.25V30.75C0 39.5 5 43.25 12.5 43.25H37.5C45 43.25 50 39.5 50 30.75V13.25C50 4.5 45 0.75 37.5 0.75ZM38.675 15.975L30.85 22.225C29.2 23.55 27.1 24.2 25 24.2C22.9 24.2 20.775 23.55 19.15 22.225L11.325 15.975C10.525 15.325 10.4 14.125 11.025 13.325C11.675 12.525 12.85 12.375 13.65 13.025L21.475 19.275C23.375 20.8 26.6 20.8 28.5 19.275L36.325 13.025C37.125 12.375 38.325 12.5 38.95 13.325C39.6 14.125 39.475 15.325 38.675 15.975Z" fill="#93328E"/>
</svg>
