<svg width="61" height="60" viewBox="0 0 61 60" fill="none" xmlns="http://www.w3.org/2000/svg">
<path d="M42.3751 8.9V5C42.3751 3.975 41.5251 3.125 40.5001 3.125C39.4751 3.125 38.6251 3.975 38.6251 5V8.75H22.3751V5C22.3751 3.975 21.5251 3.125 20.5001 3.125C19.4751 3.125 18.6251 3.975 18.6251 5V8.9C11.8751 9.525 8.60008 13.55 8.10008 19.525C8.05008 20.25 8.65008 20.85 9.35008 20.85H51.6501C52.3751 20.85 52.9751 20.225 52.9001 19.525C52.4001 13.55 49.1251 9.525 42.3751 8.9Z" fill="#93328E"/>
<path d="M50.5 24.6H10.5C9.125 24.6 8 25.725 8 27.1V42.5C8 50 11.75 55 20.5 55H40.5C49.25 55 53 50 53 42.5V27.1C53 25.725 51.875 24.6 50.5 24.6ZM23.525 45.525C23.4 45.625 23.275 45.75 23.15 45.825C23 45.925 22.85 46 22.7 46.05C22.55 46.125 22.4 46.175 22.25 46.2C22.075 46.225 21.925 46.25 21.75 46.25C21.425 46.25 21.1 46.175 20.8 46.05C20.475 45.925 20.225 45.75 19.975 45.525C19.525 45.05 19.25 44.4 19.25 43.75C19.25 43.1 19.525 42.45 19.975 41.975C20.225 41.75 20.475 41.575 20.8 41.45C21.25 41.25 21.75 41.2 22.25 41.3C22.4 41.325 22.55 41.375 22.7 41.45C22.85 41.5 23 41.575 23.15 41.675C23.275 41.775 23.4 41.875 23.525 41.975C23.975 42.45 24.25 43.1 24.25 43.75C24.25 44.4 23.975 45.05 23.525 45.525ZM23.525 36.775C23.05 37.225 22.4 37.5 21.75 37.5C21.1 37.5 20.45 37.225 19.975 36.775C19.525 36.3 19.25 35.65 19.25 35C19.25 34.35 19.525 33.7 19.975 33.225C20.675 32.525 21.775 32.3 22.7 32.7C23.025 32.825 23.3 33 23.525 33.225C23.975 33.7 24.25 34.35 24.25 35C24.25 35.65 23.975 36.3 23.525 36.775ZM32.275 45.525C31.8 45.975 31.15 46.25 30.5 46.25C29.85 46.25 29.2 45.975 28.725 45.525C28.275 45.05 28 44.4 28 43.75C28 43.1 28.275 42.45 28.725 41.975C29.65 41.05 31.35 41.05 32.275 41.975C32.725 42.45 33 43.1 33 43.75C33 44.4 32.725 45.05 32.275 45.525ZM32.275 36.775C32.15 36.875 32.025 36.975 31.9 37.075C31.75 37.175 31.6 37.25 31.45 37.3C31.3 37.375 31.15 37.425 31 37.45C30.825 37.475 30.675 37.5 30.5 37.5C29.85 37.5 29.2 37.225 28.725 36.775C28.275 36.3 28 35.65 28 35C28 34.35 28.275 33.7 28.725 33.225C28.95 33 29.225 32.825 29.55 32.7C30.475 32.3 31.575 32.525 32.275 33.225C32.725 33.7 33 34.35 33 35C33 35.65 32.725 36.3 32.275 36.775ZM41.025 45.525C40.55 45.975 39.9 46.25 39.25 46.25C38.6 46.25 37.95 45.975 37.475 45.525C37.025 45.05 36.75 44.4 36.75 43.75C36.75 43.1 37.025 42.45 37.475 41.975C38.4 41.05 40.1 41.05 41.025 41.975C41.475 42.45 41.75 43.1 41.75 43.75C41.75 44.4 41.475 45.05 41.025 45.525ZM41.025 36.775C40.9 36.875 40.775 36.975 40.65 37.075C40.5 37.175 40.35 37.25 40.2 37.3C40.05 37.375 39.9 37.425 39.75 37.45C39.575 37.475 39.4 37.5 39.25 37.5C38.6 37.5 37.95 37.225 37.475 36.775C37.025 36.3 36.75 35.65 36.75 35C36.75 34.35 37.025 33.7 37.475 33.225C37.725 33 37.975 32.825 38.3 32.7C38.75 32.5 39.25 32.45 39.75 32.55C39.9 32.575 40.05 32.625 40.2 32.7C40.35 32.75 40.5 32.825 40.65 32.925C40.775 33.025 40.9 33.125 41.025 33.225C41.475 33.7 41.75 34.35 41.75 35C41.75 35.65 41.475 36.3 41.025 36.775Z" fill="#93328E"/>
</svg>
