<svg width="60" height="60" viewBox="0 0 60 60" fill="none" xmlns="http://www.w3.org/2000/svg">
<path d="M0.715931 51.2727C0.715931 52.4773 1.13638 53.5 1.97729 54.3409L5.62502 58.0227C6.51138 58.8636 7.54548 59.2841 8.72729 59.2841C9.93184 59.2841 10.9546 58.8636 11.7955 58.0227L24.1705 45.6136C25.0341 44.7955 25.4659 43.7727 25.4659 42.5455C25.4659 41.3409 24.9773 40.25 24 39.2727L32.7273 30.5455L37.0227 34.8409C37.3409 35.1591 37.7273 35.3182 38.1818 35.3182C38.6364 35.3182 39.0227 35.1591 39.3409 34.8409C39.2955 34.8864 39.1534 35.0227 38.9148 35.25C38.6762 35.4773 38.5341 35.625 38.4887 35.6932C38.4432 35.7614 38.3296 35.892 38.1477 36.0852C37.9659 36.2784 37.8523 36.4318 37.8068 36.5455C37.7614 36.6591 37.6932 36.8125 37.6023 37.0057C37.5114 37.1989 37.4489 37.3864 37.4148 37.5682C37.3807 37.75 37.3637 37.9545 37.3637 38.1818C37.3637 39.0455 37.6818 39.8182 38.3182 40.5C38.3864 40.5682 38.5739 40.7727 38.8807 41.1136C39.1875 41.4545 39.4034 41.6875 39.5284 41.8125C39.6534 41.9375 39.8637 42.125 40.1591 42.375C40.4546 42.625 40.7046 42.8011 40.9091 42.9034C41.1137 43.0057 41.3637 43.108 41.6591 43.2102C41.9546 43.3125 42.25 43.3636 42.5455 43.3636C43.4546 43.3636 44.2273 43.0455 44.8637 42.4091L58.7727 28.5C59.4091 27.8636 59.7273 27.0909 59.7273 26.1818C59.7273 25.8864 59.6762 25.5909 59.5739 25.2955C59.4716 25 59.3693 24.75 59.2671 24.5455C59.1648 24.3409 58.9887 24.0909 58.7387 23.7955C58.4887 23.5 58.3012 23.2898 58.1762 23.1648C58.0512 23.0398 57.8182 22.8239 57.4773 22.517C57.1364 22.2102 56.9318 22.0227 56.8637 21.9545C56.1818 21.3182 55.4091 21 54.5455 21C54.3182 21 54.1137 21.017 53.9318 21.0511C53.75 21.0852 53.5625 21.1477 53.3693 21.2386C53.1762 21.3295 53.0227 21.3977 52.9091 21.4432C52.7955 21.4886 52.6421 21.6023 52.4489 21.7841C52.2557 21.9659 52.125 22.0795 52.0568 22.125C51.9887 22.1705 51.8409 22.3125 51.6137 22.5511C51.3864 22.7898 51.25 22.9318 51.2046 22.9773C51.5227 22.6591 51.6818 22.2727 51.6818 21.8182C51.6818 21.3636 51.5227 20.9773 51.2046 20.6591L39.3409 8.79546C39.0227 8.47727 38.6364 8.31818 38.1818 8.31818C37.7273 8.31818 37.3409 8.47727 37.0227 8.79546C37.0682 8.75 37.2102 8.61364 37.4489 8.38636C37.6875 8.15909 37.8296 8.01136 37.875 7.94318C37.9205 7.875 38.0341 7.74432 38.2159 7.55114C38.3977 7.35796 38.5114 7.20455 38.5568 7.09091C38.6023 6.97727 38.6705 6.82386 38.7614 6.63068C38.8523 6.4375 38.9148 6.25 38.9489 6.06818C38.983 5.88636 39 5.68182 39 5.45455C39 4.59091 38.6818 3.81818 38.0455 3.13636C37.9773 3.06818 37.7898 2.86364 37.483 2.52273C37.1762 2.18182 36.9602 1.94886 36.8352 1.82386C36.7102 1.69886 36.5 1.51136 36.2046 1.26136C35.9091 1.01136 35.6591 0.835228 35.4546 0.732955C35.25 0.630683 35 0.52841 34.7046 0.426137C34.4091 0.323864 34.1137 0.272728 33.8182 0.272728C32.9091 0.272728 32.1364 0.59091 31.5 1.22727L17.5909 15.1364C16.9546 15.7727 16.6364 16.5455 16.6364 17.4545C16.6364 17.75 16.6875 18.0455 16.7898 18.3409C16.8921 18.6364 16.9943 18.8864 17.0966 19.0909C17.1989 19.2955 17.375 19.5455 17.625 19.8409C17.875 20.1364 18.0625 20.3466 18.1875 20.4716C18.3125 20.5966 18.5455 20.8125 18.8864 21.1193C19.2273 21.4261 19.4318 21.6136 19.5 21.6818C20.1818 22.3182 20.9546 22.6364 21.8182 22.6364C22.0455 22.6364 22.25 22.6193 22.4318 22.5852C22.6137 22.5511 22.8012 22.4886 22.9943 22.3977C23.1875 22.3068 23.3409 22.2386 23.4546 22.1932C23.5682 22.1477 23.7216 22.0341 23.9148 21.8523C24.108 21.6705 24.2387 21.5568 24.3068 21.5114C24.375 21.4659 24.5227 21.3239 24.75 21.0852C24.9773 20.8466 25.1137 20.7045 25.1591 20.6591C24.8409 20.9773 24.6818 21.3636 24.6818 21.8182C24.6818 22.2727 24.8409 22.6591 25.1591 22.9773L29.4546 27.2727L20.7273 36C19.75 35.0227 18.6591 34.5341 17.4546 34.5341C16.2727 34.5341 15.2387 34.9545 14.3523 35.7955L1.97729 48.1705C1.13638 49.0568 0.715931 50.0909 0.715931 51.2727Z" fill="#93328E"/>
</svg>
